<svg width="50" height="50" viewBox="0 0 50 50" fill="none" xmlns="http://www.w3.org/2000/svg">
<path d="M34.5389 25.6179C34.5019 21.1922 38.1611 19.0411 38.3218 18.9422C36.2449 15.9258 33.0307 15.5055 31.9058 15.4684C29.2108 15.1841 26.59 17.0879 25.2178 17.0879C23.8208 17.0879 21.6945 15.5055 19.4198 15.5426C16.49 15.592 13.7332 17.2857 12.2373 19.9312C9.13437 25.3088 11.4461 33.2207 14.4254 37.5722C15.9213 39.6986 17.652 42.0845 19.939 41.9979C22.1643 41.9114 23.0049 40.5763 25.6875 40.5763C28.3578 40.5763 29.1366 41.9979 31.4607 41.9485C33.859 41.9114 35.3549 39.8098 36.8012 37.6588C38.5196 35.2234 39.2119 32.8127 39.2366 32.6891C39.1748 32.6644 34.5884 30.9089 34.5389 25.6179Z" fill="#4A4848"/>
<path d="M30.1506 12.6125C31.3498 11.1167 32.1657 9.07687 31.9431 7C30.2124 7.07417 28.0367 8.19915 26.7881 9.67026C25.6878 10.9683 24.6988 13.0823 24.9461 15.0726C26.8993 15.2209 28.902 14.0836 30.1506 12.6125Z" fill="#4A4848"/>
</svg>
