<svg width="21" height="19" viewBox="0 0 21 19" fill="none" xmlns="http://www.w3.org/2000/svg">
<path d="M1.00014 15.3811C1.96457 15.9143 8.94584 19.9386 13.9101 16.837C18.8743 13.7353 18.6004 8.39165 18.6004 5.943C19.0501 5.0009 20.0001 4.52195 20.0001 1.9719C19.067 2.8339 18.1395 3.1272 17.2176 2.8518C16.3145 1.47478 15.0719 0.865734 13.4898 1.02467C11.1168 1.26307 10.2486 3.59125 10.5041 6.60335C6.84509 8.4537 3.97589 5.262 2.49723 2.8518C2.00317 4.74995 1.52679 7.0288 2.49723 9.54975C3.14419 11.2303 4.69939 12.6512 7.16284 13.8123C4.66629 15.1654 2.61205 15.6883 1.00014 15.3811Z" fill="white" stroke="black" stroke-opacity="0.85" stroke-width="2" stroke-linejoin="round"/>
</svg>
