<svg width="10" height="10" viewBox="0 0 10 10" fill="none" xmlns="http://www.w3.org/2000/svg">
<path d="M8.95674 4.41327C9.08015 5.24552 8.938 6.09549 8.5505 6.84229C8.163 7.58908 7.54988 8.19468 6.79836 8.57294C6.04684 8.9512 5.19519 9.08287 4.36452 8.9492C3.53386 8.81554 2.7665 8.42335 2.17158 7.82843C1.57666 7.23351 1.18447 6.46614 1.05081 5.63548C0.917141 4.80482 1.0488 3.95316 1.42706 3.20164C1.80533 2.45012 2.41092 1.83701 3.15772 1.44951C3.90452 1.06201 4.75449 0.919859 5.58674 1.04327C6.43566 1.16915 7.22159 1.56473 7.82843 2.17158C8.43528 2.77842 8.83085 3.56435 8.95674 4.41327Z" stroke="black" stroke-width="2" stroke-linecap="round" stroke-linejoin="round"/>
</svg>
