<svg width="23" height="19" viewBox="0 0 23 19" fill="none" xmlns="http://www.w3.org/2000/svg">
<path d="M12.469 9.62207C13.0577 9.11242 13.53 8.48208 13.8537 7.77382C14.1773 7.06556 14.3448 6.29595 14.3448 5.51724C14.3448 4.05398 13.7635 2.65065 12.7289 1.61596C11.6942 0.581279 10.2908 0 8.82759 0C7.36432 0 5.96099 0.581279 4.92631 1.61596C3.89162 2.65065 3.31034 4.05398 3.31034 5.51724C3.31034 6.29595 3.47785 7.06556 3.80152 7.77382C4.12519 8.48208 4.59743 9.11242 5.18621 9.62207C3.64153 10.3215 2.331 11.4511 1.41129 12.8756C0.491581 14.3002 0.00162412 15.9595 0 17.6552C0 17.9478 0.116256 18.2285 0.323192 18.4354C0.530129 18.6424 0.810796 18.7586 1.10345 18.7586C1.3961 18.7586 1.67677 18.6424 1.8837 18.4354C2.09064 18.2285 2.2069 17.9478 2.2069 17.6552C2.2069 15.8993 2.90443 14.2153 4.14605 12.9736C5.38767 11.732 7.07167 11.0345 8.82759 11.0345C10.5835 11.0345 12.2675 11.732 13.5091 12.9736C14.7507 14.2153 15.4483 15.8993 15.4483 17.6552C15.4483 17.9478 15.5645 18.2285 15.7715 18.4354C15.9784 18.6424 16.2591 18.7586 16.5517 18.7586C16.8444 18.7586 17.125 18.6424 17.332 18.4354C17.5389 18.2285 17.6552 17.9478 17.6552 17.6552C17.6535 15.9595 17.1636 14.3002 16.2439 12.8756C15.3242 11.4511 14.0136 10.3215 12.469 9.62207V9.62207ZM8.82759 8.82759C8.17286 8.82759 7.53284 8.63344 6.98846 8.26969C6.44407 7.90595 6.01978 7.38894 5.76923 6.78406C5.51867 6.17917 5.45312 5.51357 5.58085 4.87143C5.70858 4.22928 6.02386 3.63943 6.48682 3.17647C6.94978 2.71351 7.53963 2.39823 8.18177 2.2705C8.82391 2.14277 9.48951 2.20833 10.0944 2.45888C10.6993 2.70943 11.2163 3.13373 11.58 3.67811C11.9438 4.2225 12.1379 4.86252 12.1379 5.51724C12.1379 6.3952 11.7892 7.2372 11.1684 7.85801C10.5475 8.47882 9.70554 8.82759 8.82759 8.82759ZM21.749 6.21241C21.6464 6.10899 21.5243 6.0269 21.3899 5.97088C21.2554 5.91486 21.1112 5.88602 20.9655 5.88602C20.8198 5.88602 20.6756 5.91486 20.5412 5.97088C20.4067 6.0269 20.2846 6.10899 20.1821 6.21241L17.9752 8.41931L17.291 7.72414C17.1885 7.62071 17.0664 7.53862 16.9319 7.4826C16.7975 7.42658 16.6533 7.39774 16.5076 7.39774C16.3619 7.39774 16.2177 7.42658 16.0832 7.4826C15.9488 7.53862 15.8267 7.62071 15.7241 7.72414C15.5186 7.93088 15.4033 8.21055 15.4033 8.50207C15.4033 8.79358 15.5186 9.07326 15.7241 9.28L17.2028 10.7586C17.4095 10.9641 17.6892 11.0795 17.9807 11.0795C18.2722 11.0795 18.5519 10.9641 18.7586 10.7586L21.7048 7.81241C21.8162 7.71236 21.9061 7.59067 21.969 7.45476C22.0319 7.31886 22.0664 7.17158 22.0705 7.02189C22.0747 6.87221 22.0483 6.72325 21.993 6.58408C21.9377 6.44492 21.8547 6.31846 21.749 6.21241V6.21241Z" fill="#2948FF"/>
</svg>
